solid ASCII
  facet normal 0.000000e+00 -1.000000e+00 -0.000000e+00
    outer loop
      vertex   6.067628e+00 6.000000e+00 1.690839e+01
      vertex   3.100986e+00 6.000000e+00 1.362867e+01
      vertex   7.500000e+00 6.000000e+00 1.250000e+01
    endloop
  endfacet
  facet normal -0.000000e+00 -1.000000e+00 0.000000e+00
    outer loop
      vertex   7.500000e+00 6.000000e+00 1.250000e+01
      vertex   3.100986e+00 6.000000e+00 1.362867e+01
      vertex   3.100986e+00 6.000000e+00 1.137133e+01
    endloop
  endfacet
  facet normal 0.000000e+00 -1.000000e+00 0.000000e+00
    outer loop
      vertex   7.500000e+00 6.000000e+00 1.250000e+01
      vertex   3.100986e+00 6.000000e+00 1.137133e+01
      vertex   6.067628e+00 6.000000e+00 8.091611e+00
    endloop
  endfacet
  facet normal 0.000000e+00 -1.000000e+00 0.000000e+00
    outer loop
      vertex   6.067628e+00 6.000000e+00 8.091611e+00
      vertex   3.100986e+00 6.000000e+00 1.137133e+01
      vertex   1.650000e+00 6.000000e+00 9.642116e+00
    endloop
  endfacet
  facet normal -0.000000e+00 -1.000000e+00 0.000000e+00
    outer loop
      vertex   6.067628e+00 6.000000e+00 8.091611e+00
      vertex   1.650000e+00 6.000000e+00 9.642116e+00
      vertex   2.317628e+00 6.000000e+00 5.367076e+00
    endloop
  endfacet
  facet normal 0.000000e+00 -1.000000e+00 0.000000e+00
    outer loop
      vertex   2.317628e+00 6.000000e+00 5.367076e+00
      vertex   1.650000e+00 6.000000e+00 9.642116e+00
      vertex   -5.730390e-01 6.000000e+00 9.250134e+00
    endloop
  endfacet
  facet normal 0.000000e+00 -1.000000e+00 0.000000e+00
    outer loop
      vertex   2.317628e+00 6.000000e+00 5.367076e+00
      vertex   -5.730390e-01 6.000000e+00 9.250134e+00
      vertex   -2.317628e+00 6.000000e+00 5.367076e+00
    endloop
  endfacet
  facet normal 0.000000e+00 -1.000000e+00 0.000000e+00
    outer loop
      vertex   -2.317628e+00 6.000000e+00 5.367076e+00
      vertex   -5.730390e-01 6.000000e+00 9.250134e+00
      vertex   -2.527947e+00 6.000000e+00 1.037880e+01
    endloop
  endfacet
  facet normal 0.000000e+00 -1.000000e+00 0.000000e+00
    outer loop
      vertex   -2.317628e+00 6.000000e+00 5.367076e+00
      vertex   -2.527947e+00 6.000000e+00 1.037880e+01
      vertex   -6.067628e+00 6.000000e+00 8.091611e+00
    endloop
  endfacet
  facet normal 0.000000e+00 -1.000000e+00 0.000000e+00
    outer loop
      vertex   -6.067628e+00 6.000000e+00 8.091611e+00
      vertex   -2.527947e+00 6.000000e+00 1.037880e+01
      vertex   -3.300000e+00 6.000000e+00 1.250000e+01
    endloop
  endfacet
  facet normal 0.000000e+00 -1.000000e+00 0.000000e+00
    outer loop
      vertex   -6.067628e+00 6.000000e+00 8.091611e+00
      vertex   -3.300000e+00 6.000000e+00 1.250000e+01
      vertex   -7.500000e+00 6.000000e+00 1.250000e+01
    endloop
  endfacet
  facet normal 0.000000e+00 -1.000000e+00 0.000000e+00
    outer loop
      vertex   -7.500000e+00 6.000000e+00 1.250000e+01
      vertex   -3.300000e+00 6.000000e+00 1.250000e+01
      vertex   -6.067628e+00 6.000000e+00 1.690839e+01
    endloop
  endfacet
  facet normal 0.000000e+00 -1.000000e+00 0.000000e+00
    outer loop
      vertex   -6.067628e+00 6.000000e+00 1.690839e+01
      vertex   -3.300000e+00 6.000000e+00 1.250000e+01
      vertex   -2.527947e+00 6.000000e+00 1.462120e+01
    endloop
  endfacet
  facet normal 0.000000e+00 -1.000000e+00 0.000000e+00
    outer loop
      vertex   -6.067628e+00 6.000000e+00 1.690839e+01
      vertex   -2.527947e+00 6.000000e+00 1.462120e+01
      vertex   -2.317628e+00 6.000000e+00 1.963292e+01
    endloop
  endfacet
  facet normal 0.000000e+00 -1.000000e+00 -0.000000e+00
    outer loop
      vertex   -2.317628e+00 6.000000e+00 1.963292e+01
      vertex   -2.527947e+00 6.000000e+00 1.462120e+01
      vertex   -5.730390e-01 6.000000e+00 1.574987e+01
    endloop
  endfacet
  facet normal 0.000000e+00 -1.000000e+00 0.000000e+00
    outer loop
      vertex   -2.317628e+00 6.000000e+00 1.963292e+01
      vertex   -5.730390e-01 6.000000e+00 1.574987e+01
      vertex   2.317628e+00 6.000000e+00 1.963292e+01
    endloop
  endfacet
  facet normal 0.000000e+00 -1.000000e+00 0.000000e+00
    outer loop
      vertex   2.317628e+00 6.000000e+00 1.963292e+01
      vertex   -5.730390e-01 6.000000e+00 1.574987e+01
      vertex   1.650000e+00 6.000000e+00 1.535788e+01
    endloop
  endfacet
  facet normal 0.000000e+00 -1.000000e+00 -0.000000e+00
    outer loop
      vertex   2.317628e+00 6.000000e+00 1.963292e+01
      vertex   1.650000e+00 6.000000e+00 1.535788e+01
      vertex   6.067628e+00 6.000000e+00 1.690839e+01
    endloop
  endfacet
  facet normal 0.000000e+00 -1.000000e+00 0.000000e+00
    outer loop
      vertex   6.067628e+00 6.000000e+00 1.690839e+01
      vertex   1.650000e+00 6.000000e+00 1.535788e+01
      vertex   3.100986e+00 6.000000e+00 1.362867e+01
    endloop
  endfacet
  facet normal -9.510565e-01 0.000000e+00 -3.090170e-01
    outer loop
      vertex   6.067628e+00 0.000000e+00 1.690839e+01
      vertex   6.067628e+00 6.000000e+00 1.690839e+01
      vertex   7.500000e+00 0.000000e+00 1.250000e+01
    endloop
  endfacet
  facet normal -9.510565e-01 0.000000e+00 -3.090170e-01
    outer loop
      vertex   7.500000e+00 0.000000e+00 1.250000e+01
      vertex   6.067628e+00 6.000000e+00 1.690839e+01
      vertex   7.500000e+00 6.000000e+00 1.250000e+01
    endloop
  endfacet
  facet normal -9.510565e-01 0.000000e+00 3.090170e-01
    outer loop
      vertex   7.500000e+00 0.000000e+00 1.250000e+01
      vertex   7.500000e+00 6.000000e+00 1.250000e+01
      vertex   6.067628e+00 0.000000e+00 8.091611e+00
    endloop
  endfacet
  facet normal -9.510565e-01 0.000000e+00 3.090170e-01
    outer loop
      vertex   6.067628e+00 0.000000e+00 8.091611e+00
      vertex   7.500000e+00 6.000000e+00 1.250000e+01
      vertex   6.067628e+00 6.000000e+00 8.091611e+00
    endloop
  endfacet
  facet normal -5.877852e-01 0.000000e+00 8.090170e-01
    outer loop
      vertex   6.067628e+00 0.000000e+00 8.091611e+00
      vertex   6.067628e+00 6.000000e+00 8.091611e+00
      vertex   2.317628e+00 0.000000e+00 5.367076e+00
    endloop
  endfacet
  facet normal -5.877852e-01 0.000000e+00 8.090170e-01
    outer loop
      vertex   2.317628e+00 0.000000e+00 5.367076e+00
      vertex   6.067628e+00 6.000000e+00 8.091611e+00
      vertex   2.317628e+00 6.000000e+00 5.367076e+00
    endloop
  endfacet
  facet normal 0.000000e+00 -0.000000e+00 1.000000e+00
    outer loop
      vertex   2.317628e+00 0.000000e+00 5.367076e+00
      vertex   2.317628e+00 6.000000e+00 5.367076e+00
      vertex   -2.317628e+00 0.000000e+00 5.367076e+00
    endloop
  endfacet
  facet normal 0.000000e+00 0.000000e+00 1.000000e+00
    outer loop
      vertex   -2.317628e+00 0.000000e+00 5.367076e+00
      vertex   2.317628e+00 6.000000e+00 5.367076e+00
      vertex   -2.317628e+00 6.000000e+00 5.367076e+00
    endloop
  endfacet
  facet normal 5.877852e-01 -0.000000e+00 8.090170e-01
    outer loop
      vertex   -2.317628e+00 0.000000e+00 5.367076e+00
      vertex   -2.317628e+00 6.000000e+00 5.367076e+00
      vertex   -6.067628e+00 0.000000e+00 8.091611e+00
    endloop
  endfacet
  facet normal 5.877852e-01 -0.000000e+00 8.090170e-01
    outer loop
      vertex   -6.067628e+00 0.000000e+00 8.091611e+00
      vertex   -2.317628e+00 6.000000e+00 5.367076e+00
      vertex   -6.067628e+00 6.000000e+00 8.091611e+00
    endloop
  endfacet
  facet normal 9.510565e-01 -0.000000e+00 3.090170e-01
    outer loop
      vertex   -6.067628e+00 0.000000e+00 8.091611e+00
      vertex   -6.067628e+00 6.000000e+00 8.091611e+00
      vertex   -7.500000e+00 0.000000e+00 1.250000e+01
    endloop
  endfacet
  facet normal 9.510565e-01 -0.000000e+00 3.090170e-01
    outer loop
      vertex   -7.500000e+00 0.000000e+00 1.250000e+01
      vertex   -6.067628e+00 6.000000e+00 8.091611e+00
      vertex   -7.500000e+00 6.000000e+00 1.250000e+01
    endloop
  endfacet
  facet normal 9.510565e-01 0.000000e+00 -3.090170e-01
    outer loop
      vertex   -7.500000e+00 0.000000e+00 1.250000e+01
      vertex   -7.500000e+00 6.000000e+00 1.250000e+01
      vertex   -6.067628e+00 0.000000e+00 1.690839e+01
    endloop
  endfacet
  facet normal 9.510565e-01 0.000000e+00 -3.090170e-01
    outer loop
      vertex   -6.067628e+00 0.000000e+00 1.690839e+01
      vertex   -7.500000e+00 6.000000e+00 1.250000e+01
      vertex   -6.067628e+00 6.000000e+00 1.690839e+01
    endloop
  endfacet
  facet normal 5.877852e-01 0.000000e+00 -8.090170e-01
    outer loop
      vertex   -6.067628e+00 0.000000e+00 1.690839e+01
      vertex   -6.067628e+00 6.000000e+00 1.690839e+01
      vertex   -2.317628e+00 0.000000e+00 1.963292e+01
    endloop
  endfacet
  facet normal 5.877852e-01 0.000000e+00 -8.090170e-01
    outer loop
      vertex   -2.317628e+00 0.000000e+00 1.963292e+01
      vertex   -6.067628e+00 6.000000e+00 1.690839e+01
      vertex   -2.317628e+00 6.000000e+00 1.963292e+01
    endloop
  endfacet
  facet normal 0.000000e+00 0.000000e+00 -1.000000e+00
    outer loop
      vertex   -2.317628e+00 0.000000e+00 1.963292e+01
      vertex   -2.317628e+00 6.000000e+00 1.963292e+01
      vertex   2.317628e+00 0.000000e+00 1.963292e+01
    endloop
  endfacet
  facet normal 0.000000e+00 0.000000e+00 -1.000000e+00
    outer loop
      vertex   2.317628e+00 0.000000e+00 1.963292e+01
      vertex   -2.317628e+00 6.000000e+00 1.963292e+01
      vertex   2.317628e+00 6.000000e+00 1.963292e+01
    endloop
  endfacet
  facet normal -5.877852e-01 0.000000e+00 -8.090170e-01
    outer loop
      vertex   2.317628e+00 0.000000e+00 1.963292e+01
      vertex   2.317628e+00 6.000000e+00 1.963292e+01
      vertex   6.067628e+00 0.000000e+00 1.690839e+01
    endloop
  endfacet
  facet normal -5.877852e-01 0.000000e+00 -8.090170e-01
    outer loop
      vertex   6.067628e+00 0.000000e+00 1.690839e+01
      vertex   2.317628e+00 6.000000e+00 1.963292e+01
      vertex   6.067628e+00 6.000000e+00 1.690839e+01
    endloop
  endfacet
  facet normal 9.396926e-01 0.000000e+00 -3.420202e-01
    outer loop
      vertex   -2.527947e+00 1.100000e+01 1.462120e+01
      vertex   -2.527947e+00 6.000000e+00 1.462120e+01
      vertex   -3.300000e+00 1.100000e+01 1.250000e+01
    endloop
  endfacet
  facet normal 9.396926e-01 0.000000e+00 -3.420202e-01
    outer loop
      vertex   -3.300000e+00 1.100000e+01 1.250000e+01
      vertex   -2.527947e+00 6.000000e+00 1.462120e+01
      vertex   -3.300000e+00 6.000000e+00 1.250000e+01
    endloop
  endfacet
  facet normal 9.396926e-01 0.000000e+00 3.420202e-01
    outer loop
      vertex   -3.300000e+00 1.100000e+01 1.250000e+01
      vertex   -3.300000e+00 6.000000e+00 1.250000e+01
      vertex   -2.527947e+00 1.100000e+01 1.037880e+01
    endloop
  endfacet
  facet normal 9.396926e-01 0.000000e+00 3.420202e-01
    outer loop
      vertex   -2.527947e+00 1.100000e+01 1.037880e+01
      vertex   -3.300000e+00 6.000000e+00 1.250000e+01
      vertex   -2.527947e+00 6.000000e+00 1.037880e+01
    endloop
  endfacet
  facet normal 5.000000e-01 0.000000e+00 8.660254e-01
    outer loop
      vertex   -2.527947e+00 1.100000e+01 1.037880e+01
      vertex   -2.527947e+00 6.000000e+00 1.037880e+01
      vertex   -5.730390e-01 1.100000e+01 9.250134e+00
    endloop
  endfacet
  facet normal 5.000000e-01 0.000000e+00 8.660254e-01
    outer loop
      vertex   -5.730390e-01 1.100000e+01 9.250134e+00
      vertex   -2.527947e+00 6.000000e+00 1.037880e+01
      vertex   -5.730390e-01 6.000000e+00 9.250134e+00
    endloop
  endfacet
  facet normal -1.736484e-01 0.000000e+00 9.848077e-01
    outer loop
      vertex   -5.730390e-01 1.100000e+01 9.250134e+00
      vertex   -5.730390e-01 6.000000e+00 9.250134e+00
      vertex   1.650000e+00 1.100000e+01 9.642116e+00
    endloop
  endfacet
  facet normal -1.736484e-01 0.000000e+00 9.848077e-01
    outer loop
      vertex   1.650000e+00 1.100000e+01 9.642116e+00
      vertex   -5.730390e-01 6.000000e+00 9.250134e+00
      vertex   1.650000e+00 6.000000e+00 9.642116e+00
    endloop
  endfacet
  facet normal -7.660444e-01 0.000000e+00 6.427876e-01
    outer loop
      vertex   1.650000e+00 1.100000e+01 9.642116e+00
      vertex   1.650000e+00 6.000000e+00 9.642116e+00
      vertex   3.100986e+00 1.100000e+01 1.137133e+01
    endloop
  endfacet
  facet normal -7.660444e-01 0.000000e+00 6.427876e-01
    outer loop
      vertex   3.100986e+00 1.100000e+01 1.137133e+01
      vertex   1.650000e+00 6.000000e+00 9.642116e+00
      vertex   3.100986e+00 6.000000e+00 1.137133e+01
    endloop
  endfacet
  facet normal -1.000000e+00 0.000000e+00 0.000000e+00
    outer loop
      vertex   3.100986e+00 1.100000e+01 1.137133e+01
      vertex   3.100986e+00 6.000000e+00 1.137133e+01
      vertex   3.100986e+00 1.100000e+01 1.362867e+01
    endloop
  endfacet
  facet normal -1.000000e+00 -0.000000e+00 0.000000e+00
    outer loop
      vertex   3.100986e+00 1.100000e+01 1.362867e+01
      vertex   3.100986e+00 6.000000e+00 1.137133e+01
      vertex   3.100986e+00 6.000000e+00 1.362867e+01
    endloop
  endfacet
  facet normal -7.660445e-01 -0.000000e+00 -6.427875e-01
    outer loop
      vertex   3.100986e+00 1.100000e+01 1.362867e+01
      vertex   3.100986e+00 6.000000e+00 1.362867e+01
      vertex   1.650000e+00 1.100000e+01 1.535788e+01
    endloop
  endfacet
  facet normal -7.660445e-01 -0.000000e+00 -6.427875e-01
    outer loop
      vertex   1.650000e+00 1.100000e+01 1.535788e+01
      vertex   3.100986e+00 6.000000e+00 1.362867e+01
      vertex   1.650000e+00 6.000000e+00 1.535788e+01
    endloop
  endfacet
  facet normal -1.736481e-01 -0.000000e+00 -9.848078e-01
    outer loop
      vertex   1.650000e+00 1.100000e+01 1.535788e+01
      vertex   1.650000e+00 6.000000e+00 1.535788e+01
      vertex   -5.730390e-01 1.100000e+01 1.574987e+01
    endloop
  endfacet
  facet normal -1.736481e-01 -0.000000e+00 -9.848078e-01
    outer loop
      vertex   -5.730390e-01 1.100000e+01 1.574987e+01
      vertex   1.650000e+00 6.000000e+00 1.535788e+01
      vertex   -5.730390e-01 6.000000e+00 1.574987e+01
    endloop
  endfacet
  facet normal 5.000000e-01 0.000000e+00 -8.660254e-01
    outer loop
      vertex   -5.730390e-01 1.100000e+01 1.574987e+01
      vertex   -5.730390e-01 6.000000e+00 1.574987e+01
      vertex   -2.527947e+00 1.100000e+01 1.462120e+01
    endloop
  endfacet
  facet normal 5.000000e-01 0.000000e+00 -8.660254e-01
    outer loop
      vertex   -2.527947e+00 1.100000e+01 1.462120e+01
      vertex   -5.730390e-01 6.000000e+00 1.574987e+01
      vertex   -2.527947e+00 6.000000e+00 1.462120e+01
    endloop
  endfacet
  facet normal 0.000000e+00 1.000000e+00 0.000000e+00
    outer loop
      vertex   -2.527947e+00 1.100000e+01 1.037880e+01
      vertex   -9.000000e+00 1.100000e+01 0.000000e+00
      vertex   -3.300000e+00 1.100000e+01 1.250000e+01
    endloop
  endfacet
  facet normal 0.000000e+00 1.000000e+00 0.000000e+00
    outer loop
      vertex   -3.300000e+00 1.100000e+01 1.250000e+01
      vertex   -9.000000e+00 1.100000e+01 0.000000e+00
      vertex   -9.000000e+00 1.100000e+01 2.500000e+01
    endloop
  endfacet
  facet normal 0.000000e+00 1.000000e+00 -0.000000e+00
    outer loop
      vertex   -3.300000e+00 1.100000e+01 1.250000e+01
      vertex   -9.000000e+00 1.100000e+01 2.500000e+01
      vertex   -2.527947e+00 1.100000e+01 1.462120e+01
    endloop
  endfacet
  facet normal 0.000000e+00 1.000000e+00 -0.000000e+00
    outer loop
      vertex   -2.527947e+00 1.100000e+01 1.462120e+01
      vertex   -9.000000e+00 1.100000e+01 2.500000e+01
      vertex   -5.730390e-01 1.100000e+01 1.574987e+01
    endloop
  endfacet
  facet normal 0.000000e+00 1.000000e+00 -0.000000e+00
    outer loop
      vertex   -5.730390e-01 1.100000e+01 1.574987e+01
      vertex   -9.000000e+00 1.100000e+01 2.500000e+01
      vertex   9.000000e+00 1.100000e+01 2.500000e+01
    endloop
  endfacet
  facet normal -0.000000e+00 1.000000e+00 0.000000e+00
    outer loop
      vertex   -5.730390e-01 1.100000e+01 1.574987e+01
      vertex   9.000000e+00 1.100000e+01 2.500000e+01
      vertex   1.650000e+00 1.100000e+01 1.535788e+01
    endloop
  endfacet
  facet normal -0.000000e+00 1.000000e+00 0.000000e+00
    outer loop
      vertex   1.650000e+00 1.100000e+01 1.535788e+01
      vertex   9.000000e+00 1.100000e+01 2.500000e+01
      vertex   3.100986e+00 1.100000e+01 1.362867e+01
    endloop
  endfacet
  facet normal -0.000000e+00 1.000000e+00 0.000000e+00
    outer loop
      vertex   3.100986e+00 1.100000e+01 1.362867e+01
      vertex   9.000000e+00 1.100000e+01 2.500000e+01
      vertex   9.000000e+00 1.100000e+01 0.000000e+00
    endloop
  endfacet
  facet normal 0.000000e+00 1.000000e+00 0.000000e+00
    outer loop
      vertex   3.100986e+00 1.100000e+01 1.362867e+01
      vertex   9.000000e+00 1.100000e+01 0.000000e+00
      vertex   3.100986e+00 1.100000e+01 1.137133e+01
    endloop
  endfacet
  facet normal 0.000000e+00 1.000000e+00 0.000000e+00
    outer loop
      vertex   3.100986e+00 1.100000e+01 1.137133e+01
      vertex   9.000000e+00 1.100000e+01 0.000000e+00
      vertex   1.650000e+00 1.100000e+01 9.642116e+00
    endloop
  endfacet
  facet normal 0.000000e+00 1.000000e+00 0.000000e+00
    outer loop
      vertex   1.650000e+00 1.100000e+01 9.642116e+00
      vertex   9.000000e+00 1.100000e+01 0.000000e+00
      vertex   -5.730390e-01 1.100000e+01 9.250134e+00
    endloop
  endfacet
  facet normal 0.000000e+00 1.000000e+00 0.000000e+00
    outer loop
      vertex   -5.730390e-01 1.100000e+01 9.250134e+00
      vertex   9.000000e+00 1.100000e+01 0.000000e+00
      vertex   -9.000000e+00 1.100000e+01 0.000000e+00
    endloop
  endfacet
  facet normal 0.000000e+00 1.000000e+00 0.000000e+00
    outer loop
      vertex   -5.730390e-01 1.100000e+01 9.250134e+00
      vertex   -9.000000e+00 1.100000e+01 0.000000e+00
      vertex   -2.527947e+00 1.100000e+01 1.037880e+01
    endloop
  endfacet
  facet normal 5.947440e-01 8.039152e-01 -0.000000e+00
    outer loop
      vertex   1.746526e+01 4.737321e+00 0.000000e+00
      vertex   9.000000e+00 1.100000e+01 0.000000e+00
      vertex   1.746526e+01 4.737321e+00 2.500000e+01
    endloop
  endfacet
  facet normal 5.947440e-01 8.039152e-01 0.000000e+00
    outer loop
      vertex   1.746526e+01 4.737321e+00 2.500000e+01
      vertex   9.000000e+00 1.100000e+01 0.000000e+00
      vertex   9.000000e+00 1.100000e+01 2.500000e+01
    endloop
  endfacet
  facet normal 8.003318e-01 5.995573e-01 0.000000e+00
    outer loop
      vertex   1.764688e+01 4.564999e+00 2.500000e+01
      vertex   1.764688e+01 4.564999e+00 0.000000e+00
      vertex   1.759636e+01 4.632427e+00 2.500000e+01
    endloop
  endfacet
  facet normal 8.003318e-01 5.995573e-01 0.000000e+00
    outer loop
      vertex   1.759636e+01 4.632427e+00 2.500000e+01
      vertex   1.764688e+01 4.564999e+00 0.000000e+00
      vertex   1.759636e+01 4.632427e+00 0.000000e+00
    endloop
  endfacet
  facet normal 6.882990e-01 7.254271e-01 0.000000e+00
    outer loop
      vertex   1.759636e+01 4.632427e+00 2.500000e+01
      vertex   1.759636e+01 4.632427e+00 0.000000e+00
      vertex   1.753525e+01 4.690416e+00 2.500000e+01
    endloop
  endfacet
  facet normal 6.882990e-01 7.254271e-01 0.000000e+00
    outer loop
      vertex   1.753525e+01 4.690416e+00 2.500000e+01
      vertex   1.759636e+01 4.632427e+00 0.000000e+00
      vertex   1.753525e+01 4.690416e+00 0.000000e+00
    endloop
  endfacet
  facet normal 5.567344e-01 8.306905e-01 0.000000e+00
    outer loop
      vertex   1.753525e+01 4.690416e+00 2.500000e+01
      vertex   1.753525e+01 4.690416e+00 0.000000e+00
      vertex   1.746526e+01 4.737321e+00 0.000000e+00
    endloop
  endfacet
  facet normal 5.567344e-01 8.306905e-01 -0.000000e+00
    outer loop
      vertex   1.746526e+01 4.737321e+00 0.000000e+00
      vertex   1.746526e+01 4.737321e+00 2.500000e+01
      vertex   1.753525e+01 4.690416e+00 2.500000e+01
    endloop
  endfacet
  facet normal 8.479983e-01 5.299989e-01 -0.000000e+00
    outer loop
      vertex   2.002187e+01 7.649995e-01 0.000000e+00
      vertex   1.764688e+01 4.564999e+00 0.000000e+00
      vertex   2.002187e+01 7.649995e-01 2.500000e+01
    endloop
  endfacet
  facet normal 8.479983e-01 5.299989e-01 0.000000e+00
    outer loop
      vertex   2.002187e+01 7.649995e-01 2.500000e+01
      vertex   1.764688e+01 4.564999e+00 0.000000e+00
      vertex   1.764688e+01 4.564999e+00 2.500000e+01
    endloop
  endfacet
  facet normal 2.630420e-01 -9.647844e-01 0.000000e+00
    outer loop
      vertex   1.959788e+01 0.000000e+00 0.000000e+00
      vertex   1.985166e+01 6.919138e-02 0.000000e+00
      vertex   1.959788e+01 0.000000e+00 2.500000e+01
    endloop
  endfacet
  facet normal 2.630420e-01 -9.647844e-01 0.000000e+00
    outer loop
      vertex   1.959788e+01 0.000000e+00 2.500000e+01
      vertex   1.985166e+01 6.919138e-02 0.000000e+00
      vertex   1.985166e+01 6.919138e-02 2.500000e+01
    endloop
  endfacet
  facet normal 7.163268e-01 -6.977649e-01 0.000000e+00
    outer loop
      vertex   1.985166e+01 6.919138e-02 2.500000e+01
      vertex   1.985166e+01 6.919138e-02 0.000000e+00
      vertex   2.003520e+01 2.576157e-01 0.000000e+00
    endloop
  endfacet
  facet normal 7.163268e-01 -6.977649e-01 0.000000e+00
    outer loop
      vertex   1.985166e+01 6.919138e-02 2.500000e+01
      vertex   2.003520e+01 2.576157e-01 0.000000e+00
      vertex   2.003520e+01 2.576157e-01 2.500000e+01
    endloop
  endfacet
  facet normal 9.713563e-01 -2.376278e-01 0.000000e+00
    outer loop
      vertex   2.003520e+01 2.576157e-01 2.500000e+01
      vertex   2.003520e+01 2.576157e-01 0.000000e+00
      vertex   2.009770e+01 5.131237e-01 2.500000e+01
    endloop
  endfacet
  facet normal 9.713563e-01 -2.376278e-01 0.000000e+00
    outer loop
      vertex   2.009770e+01 5.131237e-01 2.500000e+01
      vertex   2.003520e+01 2.576157e-01 0.000000e+00
      vertex   2.009770e+01 5.131237e-01 0.000000e+00
    endloop
  endfacet
  facet normal 9.575472e-01 2.882765e-01 0.000000e+00
    outer loop
      vertex   2.009770e+01 5.131237e-01 2.500000e+01
      vertex   2.009770e+01 5.131237e-01 0.000000e+00
      vertex   2.002187e+01 7.649995e-01 0.000000e+00
    endloop
  endfacet
  facet normal 9.575472e-01 2.882765e-01 -0.000000e+00
    outer loop
      vertex   2.002187e+01 7.649995e-01 0.000000e+00
      vertex   2.002187e+01 7.649995e-01 2.500000e+01
      vertex   2.009770e+01 5.131237e-01 2.500000e+01
    endloop
  endfacet
  facet normal 0.000000e+00 -1.000000e+00 0.000000e+00
    outer loop
      vertex   6.067628e+00 0.000000e+00 8.091611e+00
      vertex   1.959788e+01 0.000000e+00 0.000000e+00
      vertex   7.500000e+00 0.000000e+00 1.250000e+01
    endloop
  endfacet
  facet normal 0.000000e+00 -1.000000e+00 0.000000e+00
    outer loop
      vertex   7.500000e+00 0.000000e+00 1.250000e+01
      vertex   1.959788e+01 0.000000e+00 0.000000e+00
      vertex   1.959788e+01 0.000000e+00 2.500000e+01
    endloop
  endfacet
  facet normal 0.000000e+00 -1.000000e+00 0.000000e+00
    outer loop
      vertex   7.500000e+00 0.000000e+00 1.250000e+01
      vertex   1.959788e+01 0.000000e+00 2.500000e+01
      vertex   6.067628e+00 0.000000e+00 1.690839e+01
    endloop
  endfacet
  facet normal 0.000000e+00 -1.000000e+00 0.000000e+00
    outer loop
      vertex   6.067628e+00 0.000000e+00 1.690839e+01
      vertex   1.959788e+01 0.000000e+00 2.500000e+01
      vertex   2.317628e+00 0.000000e+00 1.963292e+01
    endloop
  endfacet
  facet normal 0.000000e+00 -1.000000e+00 0.000000e+00
    outer loop
      vertex   2.317628e+00 0.000000e+00 1.963292e+01
      vertex   1.959788e+01 0.000000e+00 2.500000e+01
      vertex   -1.959788e+01 0.000000e+00 2.500000e+01
    endloop
  endfacet
  facet normal 0.000000e+00 -1.000000e+00 0.000000e+00
    outer loop
      vertex   2.317628e+00 0.000000e+00 1.963292e+01
      vertex   -1.959788e+01 0.000000e+00 2.500000e+01
      vertex   -2.317628e+00 0.000000e+00 1.963292e+01
    endloop
  endfacet
  facet normal -0.000000e+00 -1.000000e+00 0.000000e+00
    outer loop
      vertex   -2.317628e+00 0.000000e+00 1.963292e+01
      vertex   -1.959788e+01 0.000000e+00 2.500000e+01
      vertex   -6.067628e+00 0.000000e+00 1.690839e+01
    endloop
  endfacet
  facet normal -0.000000e+00 -1.000000e+00 0.000000e+00
    outer loop
      vertex   -6.067628e+00 0.000000e+00 1.690839e+01
      vertex   -1.959788e+01 0.000000e+00 2.500000e+01
      vertex   -7.500000e+00 0.000000e+00 1.250000e+01
    endloop
  endfacet
  facet normal -0.000000e+00 -1.000000e+00 0.000000e+00
    outer loop
      vertex   -7.500000e+00 0.000000e+00 1.250000e+01
      vertex   -1.959788e+01 0.000000e+00 2.500000e+01
      vertex   -1.959788e+01 0.000000e+00 0.000000e+00
    endloop
  endfacet
  facet normal 0.000000e+00 -1.000000e+00 -0.000000e+00
    outer loop
      vertex   -7.500000e+00 0.000000e+00 1.250000e+01
      vertex   -1.959788e+01 0.000000e+00 0.000000e+00
      vertex   -6.067628e+00 0.000000e+00 8.091611e+00
    endloop
  endfacet
  facet normal 0.000000e+00 -1.000000e+00 -0.000000e+00
    outer loop
      vertex   -6.067628e+00 0.000000e+00 8.091611e+00
      vertex   -1.959788e+01 0.000000e+00 0.000000e+00
      vertex   -2.317628e+00 0.000000e+00 5.367076e+00
    endloop
  endfacet
  facet normal 0.000000e+00 -1.000000e+00 -0.000000e+00
    outer loop
      vertex   -2.317628e+00 0.000000e+00 5.367076e+00
      vertex   -1.959788e+01 0.000000e+00 0.000000e+00
      vertex   1.959788e+01 0.000000e+00 0.000000e+00
    endloop
  endfacet
  facet normal 0.000000e+00 -1.000000e+00 0.000000e+00
    outer loop
      vertex   -2.317628e+00 0.000000e+00 5.367076e+00
      vertex   1.959788e+01 0.000000e+00 0.000000e+00
      vertex   2.317628e+00 0.000000e+00 5.367076e+00
    endloop
  endfacet
  facet normal 0.000000e+00 -1.000000e+00 0.000000e+00
    outer loop
      vertex   2.317628e+00 0.000000e+00 5.367076e+00
      vertex   1.959788e+01 0.000000e+00 0.000000e+00
      vertex   6.067628e+00 0.000000e+00 8.091611e+00
    endloop
  endfacet
  facet normal -9.575472e-01 2.882765e-01 0.000000e+00
    outer loop
      vertex   -2.002187e+01 7.649995e-01 0.000000e+00
      vertex   -2.009770e+01 5.131237e-01 0.000000e+00
      vertex   -2.002187e+01 7.649995e-01 2.500000e+01
    endloop
  endfacet
  facet normal -9.575472e-01 2.882765e-01 0.000000e+00
    outer loop
      vertex   -2.002187e+01 7.649995e-01 2.500000e+01
      vertex   -2.009770e+01 5.131237e-01 0.000000e+00
      vertex   -2.009770e+01 5.131237e-01 2.500000e+01
    endloop
  endfacet
  facet normal -9.713563e-01 -2.376278e-01 -0.000000e+00
    outer loop
      vertex   -2.009770e+01 5.131237e-01 2.500000e+01
      vertex   -2.009770e+01 5.131237e-01 0.000000e+00
      vertex   -2.003520e+01 2.576157e-01 0.000000e+00
    endloop
  endfacet
  facet normal -9.713563e-01 -2.376278e-01 0.000000e+00
    outer loop
      vertex   -2.009770e+01 5.131237e-01 2.500000e+01
      vertex   -2.003520e+01 2.576157e-01 0.000000e+00
      vertex   -2.003520e+01 2.576157e-01 2.500000e+01
    endloop
  endfacet
  facet normal -7.163268e-01 -6.977649e-01 -0.000000e+00
    outer loop
      vertex   -2.003520e+01 2.576157e-01 2.500000e+01
      vertex   -2.003520e+01 2.576157e-01 0.000000e+00
      vertex   -1.985166e+01 6.919138e-02 2.500000e+01
    endloop
  endfacet
  facet normal -7.163268e-01 -6.977649e-01 -0.000000e+00
    outer loop
      vertex   -1.985166e+01 6.919138e-02 2.500000e+01
      vertex   -2.003520e+01 2.576157e-01 0.000000e+00
      vertex   -1.985166e+01 6.919138e-02 0.000000e+00
    endloop
  endfacet
  facet normal -2.630420e-01 -9.647844e-01 -0.000000e+00
    outer loop
      vertex   -1.985166e+01 6.919138e-02 2.500000e+01
      vertex   -1.985166e+01 6.919138e-02 0.000000e+00
      vertex   -1.959788e+01 0.000000e+00 0.000000e+00
    endloop
  endfacet
  facet normal -2.630420e-01 -9.647844e-01 0.000000e+00
    outer loop
      vertex   -1.959788e+01 0.000000e+00 0.000000e+00
      vertex   -1.959788e+01 0.000000e+00 2.500000e+01
      vertex   -1.985166e+01 6.919138e-02 2.500000e+01
    endloop
  endfacet
  facet normal -8.479983e-01 5.299989e-01 0.000000e+00
    outer loop
      vertex   -1.764688e+01 4.564999e+00 0.000000e+00
      vertex   -2.002187e+01 7.649995e-01 0.000000e+00
      vertex   -1.764688e+01 4.564999e+00 2.500000e+01
    endloop
  endfacet
  facet normal -8.479983e-01 5.299989e-01 0.000000e+00
    outer loop
      vertex   -1.764688e+01 4.564999e+00 2.500000e+01
      vertex   -2.002187e+01 7.649995e-01 0.000000e+00
      vertex   -2.002187e+01 7.649995e-01 2.500000e+01
    endloop
  endfacet
  facet normal -5.567344e-01 8.306905e-01 0.000000e+00
    outer loop
      vertex   -1.746526e+01 4.737321e+00 2.500000e+01
      vertex   -1.746526e+01 4.737321e+00 0.000000e+00
      vertex   -1.753525e+01 4.690416e+00 2.500000e+01
    endloop
  endfacet
  facet normal -5.567344e-01 8.306905e-01 0.000000e+00
    outer loop
      vertex   -1.753525e+01 4.690416e+00 2.500000e+01
      vertex   -1.746526e+01 4.737321e+00 0.000000e+00
      vertex   -1.753525e+01 4.690416e+00 0.000000e+00
    endloop
  endfacet
  facet normal -6.882990e-01 7.254271e-01 0.000000e+00
    outer loop
      vertex   -1.753525e+01 4.690416e+00 2.500000e+01
      vertex   -1.753525e+01 4.690416e+00 0.000000e+00
      vertex   -1.759636e+01 4.632427e+00 2.500000e+01
    endloop
  endfacet
  facet normal -6.882990e-01 7.254271e-01 0.000000e+00
    outer loop
      vertex   -1.759636e+01 4.632427e+00 2.500000e+01
      vertex   -1.753525e+01 4.690416e+00 0.000000e+00
      vertex   -1.759636e+01 4.632427e+00 0.000000e+00
    endloop
  endfacet
  facet normal -8.003318e-01 5.995573e-01 0.000000e+00
    outer loop
      vertex   -1.759636e+01 4.632427e+00 2.500000e+01
      vertex   -1.759636e+01 4.632427e+00 0.000000e+00
      vertex   -1.764688e+01 4.564999e+00 2.500000e+01
    endloop
  endfacet
  facet normal -8.003318e-01 5.995573e-01 0.000000e+00
    outer loop
      vertex   -1.764688e+01 4.564999e+00 2.500000e+01
      vertex   -1.759636e+01 4.632427e+00 0.000000e+00
      vertex   -1.764688e+01 4.564999e+00 0.000000e+00
    endloop
  endfacet
  facet normal -5.947440e-01 8.039152e-01 0.000000e+00
    outer loop
      vertex   -9.000000e+00 1.100000e+01 0.000000e+00
      vertex   -1.746526e+01 4.737321e+00 0.000000e+00
      vertex   -9.000000e+00 1.100000e+01 2.500000e+01
    endloop
  endfacet
  facet normal -5.947440e-01 8.039152e-01 0.000000e+00
    outer loop
      vertex   -9.000000e+00 1.100000e+01 2.500000e+01
      vertex   -1.746526e+01 4.737321e+00 0.000000e+00
      vertex   -1.746526e+01 4.737321e+00 2.500000e+01
    endloop
  endfacet
  facet normal 0.000000e+00 0.000000e+00 1.000000e+00
    outer loop
      vertex   9.000000e+00 1.100000e+01 2.500000e+01
      vertex   -9.000000e+00 1.100000e+01 2.500000e+01
      vertex   1.746526e+01 4.737321e+00 2.500000e+01
    endloop
  endfacet
  facet normal 0.000000e+00 0.000000e+00 1.000000e+00
    outer loop
      vertex   1.746526e+01 4.737321e+00 2.500000e+01
      vertex   -9.000000e+00 1.100000e+01 2.500000e+01
      vertex   -1.746526e+01 4.737321e+00 2.500000e+01
    endloop
  endfacet
  facet normal 0.000000e+00 0.000000e+00 1.000000e+00
    outer loop
      vertex   1.746526e+01 4.737321e+00 2.500000e+01
      vertex   -1.746526e+01 4.737321e+00 2.500000e+01
      vertex   1.764688e+01 4.564999e+00 2.500000e+01
    endloop
  endfacet
  facet normal 0.000000e+00 0.000000e+00 1.000000e+00
    outer loop
      vertex   1.764688e+01 4.564999e+00 2.500000e+01
      vertex   -1.746526e+01 4.737321e+00 2.500000e+01
      vertex   -1.764688e+01 4.564999e+00 2.500000e+01
    endloop
  endfacet
  facet normal 0.000000e+00 0.000000e+00 1.000000e+00
    outer loop
      vertex   1.764688e+01 4.564999e+00 2.500000e+01
      vertex   -1.764688e+01 4.564999e+00 2.500000e+01
      vertex   1.959788e+01 0.000000e+00 2.500000e+01
    endloop
  endfacet
  facet normal 0.000000e+00 0.000000e+00 1.000000e+00
    outer loop
      vertex   1.959788e+01 0.000000e+00 2.500000e+01
      vertex   -1.764688e+01 4.564999e+00 2.500000e+01
      vertex   -1.959788e+01 0.000000e+00 2.500000e+01
    endloop
  endfacet
  facet normal 0.000000e+00 -0.000000e+00 1.000000e+00
    outer loop
      vertex   -1.959788e+01 0.000000e+00 2.500000e+01
      vertex   -1.764688e+01 4.564999e+00 2.500000e+01
      vertex   -2.002187e+01 7.649995e-01 2.500000e+01
    endloop
  endfacet
  facet normal 0.000000e+00 0.000000e+00 1.000000e+00
    outer loop
      vertex   -1.959788e+01 0.000000e+00 2.500000e+01
      vertex   -2.002187e+01 7.649995e-01 2.500000e+01
      vertex   -2.009770e+01 5.131237e-01 2.500000e+01
    endloop
  endfacet
  facet normal -0.000000e+00 0.000000e+00 1.000000e+00
    outer loop
      vertex   -1.753525e+01 4.690416e+00 2.500000e+01
      vertex   -1.759636e+01 4.632427e+00 2.500000e+01
      vertex   -1.746526e+01 4.737321e+00 2.500000e+01
    endloop
  endfacet
  facet normal 0.000000e+00 0.000000e+00 1.000000e+00
    outer loop
      vertex   -1.746526e+01 4.737321e+00 2.500000e+01
      vertex   -1.759636e+01 4.632427e+00 2.500000e+01
      vertex   -1.764688e+01 4.564999e+00 2.500000e+01
    endloop
  endfacet
  facet normal 0.000000e+00 0.000000e+00 1.000000e+00
    outer loop
      vertex   -2.009770e+01 5.131237e-01 2.500000e+01
      vertex   -2.003520e+01 2.576157e-01 2.500000e+01
      vertex   -1.959788e+01 0.000000e+00 2.500000e+01
    endloop
  endfacet
  facet normal 0.000000e+00 0.000000e+00 1.000000e+00
    outer loop
      vertex   -1.959788e+01 0.000000e+00 2.500000e+01
      vertex   -2.003520e+01 2.576157e-01 2.500000e+01
      vertex   -1.985166e+01 6.919138e-02 2.500000e+01
    endloop
  endfacet
  facet normal 0.000000e+00 -0.000000e+00 1.000000e+00
    outer loop
      vertex   1.985166e+01 6.919138e-02 2.500000e+01
      vertex   2.003520e+01 2.576157e-01 2.500000e+01
      vertex   1.959788e+01 0.000000e+00 2.500000e+01
    endloop
  endfacet
  facet normal 0.000000e+00 0.000000e+00 1.000000e+00
    outer loop
      vertex   1.959788e+01 0.000000e+00 2.500000e+01
      vertex   2.003520e+01 2.576157e-01 2.500000e+01
      vertex   2.009770e+01 5.131237e-01 2.500000e+01
    endloop
  endfacet
  facet normal 0.000000e+00 0.000000e+00 1.000000e+00
    outer loop
      vertex   1.959788e+01 0.000000e+00 2.500000e+01
      vertex   2.009770e+01 5.131237e-01 2.500000e+01
      vertex   2.002187e+01 7.649995e-01 2.500000e+01
    endloop
  endfacet
  facet normal 0.000000e+00 0.000000e+00 1.000000e+00
    outer loop
      vertex   2.002187e+01 7.649995e-01 2.500000e+01
      vertex   1.764688e+01 4.564999e+00 2.500000e+01
      vertex   1.959788e+01 0.000000e+00 2.500000e+01
    endloop
  endfacet
  facet normal 0.000000e+00 0.000000e+00 1.000000e+00
    outer loop
      vertex   1.764688e+01 4.564999e+00 2.500000e+01
      vertex   1.759636e+01 4.632427e+00 2.500000e+01
      vertex   1.746526e+01 4.737321e+00 2.500000e+01
    endloop
  endfacet
  facet normal 0.000000e+00 0.000000e+00 1.000000e+00
    outer loop
      vertex   1.746526e+01 4.737321e+00 2.500000e+01
      vertex   1.759636e+01 4.632427e+00 2.500000e+01
      vertex   1.753525e+01 4.690416e+00 2.500000e+01
    endloop
  endfacet
  facet normal 0.000000e+00 -0.000000e+00 -1.000000e+00
    outer loop
      vertex   -9.000000e+00 1.100000e+01 0.000000e+00
      vertex   9.000000e+00 1.100000e+01 0.000000e+00
      vertex   -1.746526e+01 4.737321e+00 0.000000e+00
    endloop
  endfacet
  facet normal 0.000000e+00 0.000000e+00 -1.000000e+00
    outer loop
      vertex   -1.746526e+01 4.737321e+00 0.000000e+00
      vertex   9.000000e+00 1.100000e+01 0.000000e+00
      vertex   1.746526e+01 4.737321e+00 0.000000e+00
    endloop
  endfacet
  facet normal 0.000000e+00 -0.000000e+00 -1.000000e+00
    outer loop
      vertex   -1.746526e+01 4.737321e+00 0.000000e+00
      vertex   1.746526e+01 4.737321e+00 0.000000e+00
      vertex   -1.764688e+01 4.564999e+00 0.000000e+00
    endloop
  endfacet
  facet normal 0.000000e+00 0.000000e+00 -1.000000e+00
    outer loop
      vertex   -1.764688e+01 4.564999e+00 0.000000e+00
      vertex   1.746526e+01 4.737321e+00 0.000000e+00
      vertex   1.764688e+01 4.564999e+00 0.000000e+00
    endloop
  endfacet
  facet normal 0.000000e+00 -0.000000e+00 -1.000000e+00
    outer loop
      vertex   -1.764688e+01 4.564999e+00 0.000000e+00
      vertex   1.764688e+01 4.564999e+00 0.000000e+00
      vertex   -1.959788e+01 0.000000e+00 0.000000e+00
    endloop
  endfacet
  facet normal 0.000000e+00 0.000000e+00 -1.000000e+00
    outer loop
      vertex   -1.959788e+01 0.000000e+00 0.000000e+00
      vertex   1.764688e+01 4.564999e+00 0.000000e+00
      vertex   1.959788e+01 0.000000e+00 0.000000e+00
    endloop
  endfacet
  facet normal 0.000000e+00 0.000000e+00 -1.000000e+00
    outer loop
      vertex   1.959788e+01 0.000000e+00 0.000000e+00
      vertex   1.764688e+01 4.564999e+00 0.000000e+00
      vertex   2.002187e+01 7.649995e-01 0.000000e+00
    endloop
  endfacet
  facet normal 0.000000e+00 0.000000e+00 -1.000000e+00
    outer loop
      vertex   1.959788e+01 0.000000e+00 0.000000e+00
      vertex   2.002187e+01 7.649995e-01 0.000000e+00
      vertex   2.009770e+01 5.131237e-01 0.000000e+00
    endloop
  endfacet
  facet normal -0.000000e+00 -0.000000e+00 -1.000000e+00
    outer loop
      vertex   1.753525e+01 4.690416e+00 0.000000e+00
      vertex   1.759636e+01 4.632427e+00 0.000000e+00
      vertex   1.746526e+01 4.737321e+00 0.000000e+00
    endloop
  endfacet
  facet normal 0.000000e+00 0.000000e+00 -1.000000e+00
    outer loop
      vertex   1.746526e+01 4.737321e+00 0.000000e+00
      vertex   1.759636e+01 4.632427e+00 0.000000e+00
      vertex   1.764688e+01 4.564999e+00 0.000000e+00
    endloop
  endfacet
  facet normal 0.000000e+00 0.000000e+00 -1.000000e+00
    outer loop
      vertex   2.009770e+01 5.131237e-01 0.000000e+00
      vertex   2.003520e+01 2.576157e-01 0.000000e+00
      vertex   1.959788e+01 0.000000e+00 0.000000e+00
    endloop
  endfacet
  facet normal 0.000000e+00 0.000000e+00 -1.000000e+00
    outer loop
      vertex   1.959788e+01 0.000000e+00 0.000000e+00
      vertex   2.003520e+01 2.576157e-01 0.000000e+00
      vertex   1.985166e+01 6.919138e-02 0.000000e+00
    endloop
  endfacet
  facet normal 0.000000e+00 0.000000e+00 -1.000000e+00
    outer loop
      vertex   -1.985166e+01 6.919138e-02 0.000000e+00
      vertex   -2.003520e+01 2.576157e-01 0.000000e+00
      vertex   -1.959788e+01 0.000000e+00 0.000000e+00
    endloop
  endfacet
  facet normal 0.000000e+00 0.000000e+00 -1.000000e+00
    outer loop
      vertex   -1.959788e+01 0.000000e+00 0.000000e+00
      vertex   -2.003520e+01 2.576157e-01 0.000000e+00
      vertex   -2.009770e+01 5.131237e-01 0.000000e+00
    endloop
  endfacet
  facet normal 0.000000e+00 0.000000e+00 -1.000000e+00
    outer loop
      vertex   -1.959788e+01 0.000000e+00 0.000000e+00
      vertex   -2.009770e+01 5.131237e-01 0.000000e+00
      vertex   -2.002187e+01 7.649995e-01 0.000000e+00
    endloop
  endfacet
  facet normal 0.000000e+00 0.000000e+00 -1.000000e+00
    outer loop
      vertex   -2.002187e+01 7.649995e-01 0.000000e+00
      vertex   -1.764688e+01 4.564999e+00 0.000000e+00
      vertex   -1.959788e+01 0.000000e+00 0.000000e+00
    endloop
  endfacet
  facet normal 0.000000e+00 0.000000e+00 -1.000000e+00
    outer loop
      vertex   -1.764688e+01 4.564999e+00 0.000000e+00
      vertex   -1.759636e+01 4.632427e+00 0.000000e+00
      vertex   -1.746526e+01 4.737321e+00 0.000000e+00
    endloop
  endfacet
  facet normal 0.000000e+00 0.000000e+00 -1.000000e+00
    outer loop
      vertex   -1.746526e+01 4.737321e+00 0.000000e+00
      vertex   -1.759636e+01 4.632427e+00 0.000000e+00
      vertex   -1.753525e+01 4.690416e+00 0.000000e+00
    endloop
  endfacet
endsolid
